<svg xmlns="http://www.w3.org/2000/svg" viewBox="0 0 240 240" role="img" aria-label="花朵">
  <defs>
    <linearGradient id="petalA" x1="30" x2="210" y1="20" y2="220" gradientUnits="userSpaceOnUse">
      <stop stop-color="#F7D88F"/>
      <stop offset="0.55" stop-color="#F7B7A7"/>
      <stop offset="1" stop-color="#DDEBA2"/>
    </linearGradient>
    <linearGradient id="leafA" x1="84" x2="178" y1="150" y2="226" gradientUnits="userSpaceOnUse">
      <stop stop-color="#9DCF55"/>
      <stop offset="1" stop-color="#5E8C54"/>
    </linearGradient>
    <filter id="softShadow" x="-20%" y="-20%" width="140%" height="150%">
      <feDropShadow dx="0" dy="10" stdDeviation="10" flood-color="#816F44" flood-opacity="0.2"/>
    </filter>
  </defs>
  <rect width="240" height="240" fill="none"/>
  <g filter="url(#softShadow)">
    <path d="M121 130C85 98 76 62 97 42c19-18 46 4 47 43 34-20 70-16 78 10 8 27-27 45-64 34 20 34 16 68-10 77-27 9-45-25-34-62-33 21-69 17-78-9-9-28 28-47 85-5Z" fill="url(#petalA)"/>
    <circle cx="123" cy="121" r="33" fill="#FFF9E8"/>
    <circle cx="123" cy="121" r="20" fill="#EFD67C"/>
    <path d="M118 151c-4 25-9 49-17 69" fill="none" stroke="#5E8C54" stroke-width="9" stroke-linecap="round"/>
    <path d="M104 190c-24-2-42-14-51-35 25-3 46 8 59 29" fill="url(#leafA)"/>
    <path d="M126 184c16-22 39-31 63-24-10 22-30 34-57 34" fill="url(#leafA)"/>
  </g>
</svg>
